HIERARCHY
ROOT root
{
	OFFSET 0.000000 0.000000 0.000000
	CHANNELS 6 Xposition Yposition Zposition Zrotation Yrotation Xrotation
	JOINT lhip
	{
		OFFSET 0.058581 -0.082280 -0.017664
		CHANNELS 3 Zrotation Yrotation Xrotation
		JOINT lknee
		{
			OFFSET 0.043451 -0.386469 0.008037
			CHANNELS 3 Zrotation Yrotation Xrotation
			JOINT lankle
			{
				OFFSET -0.014790 -0.426874 -0.037428
				CHANNELS 3 Zrotation Yrotation Xrotation
				JOINT ltoe
				{
					OFFSET 0.041054 -0.060286 0.122042
					CHANNELS 3 Zrotation Yrotation Xrotation
					End Site
					{
						OFFSET 0.000000 0.000000 0.000000
					}
				}
			}
		}
	}
	JOINT rhip
	{
		OFFSET -0.060310 -0.090513 -0.013543
		CHANNELS 3 Zrotation Yrotation Xrotation
		JOINT rknee
		{
			OFFSET -0.043257 -0.383688 -0.004843
			CHANNELS 3 Zrotation Yrotation Xrotation
			JOINT rankle
			{
				OFFSET 0.019056 -0.420046 -0.034562
				CHANNELS 3 Zrotation Yrotation Xrotation
				JOINT rtoe
				{
					OFFSET -0.034840 -0.062106 0.130323
					CHANNELS 3 Zrotation Yrotation Xrotation
					End Site
					{
						OFFSET 0.000000 0.000000 0.000000
					}
				}
			}
		}
	}
	JOINT lowerback
	{
		OFFSET 0.004439 0.124404 -0.038385
		CHANNELS 3 Zrotation Yrotation Xrotation
		JOINT upperback
		{
			OFFSET 0.004488 0.137956 0.026820
			CHANNELS 3 Zrotation Yrotation Xrotation
			JOINT chest
			{
				OFFSET -0.002265 0.056032 0.002855
				CHANNELS 3 Zrotation Yrotation Xrotation
				JOINT lowerneck
				{
					OFFSET -0.013390 0.211636 -0.033468
					CHANNELS 3 Zrotation Yrotation Xrotation
					JOINT upperneck
					{
						OFFSET 0.010113 0.088937 0.050410
						CHANNELS 3 Zrotation Yrotation Xrotation
						End Site
						{
							OFFSET 0.000000 0.000000 0.000000
						}
					}
				}
				JOINT lclavicle
				{
					OFFSET 0.071702 0.114000 -0.018898
					CHANNELS 3 Zrotation Yrotation Xrotation
					JOINT lshoulder
					{
						OFFSET 0.122921 0.045205 -0.019046
						CHANNELS 3 Zrotation Yrotation Xrotation
						JOINT lelbow
						{
							OFFSET 0.255332 -0.015649 -0.022946
							CHANNELS 3 Zrotation Yrotation Xrotation
							JOINT lwrist
							{
								OFFSET 0.265709 0.012698 -0.007375
								CHANNELS 3 Zrotation Yrotation Xrotation
								End Site
								{
									OFFSET 0.000000 0.000000 0.000000
								}
							}
						}
					}
				}
				JOINT rclavicle
				{
					OFFSET -0.082954 0.112472 -0.023707
					CHANNELS 3 Zrotation Yrotation Xrotation
					JOINT rshoulder
					{
						OFFSET -0.113228 0.046853 -0.008472
						CHANNELS 3 Zrotation Yrotation Xrotation
						JOINT relbow
						{
							OFFSET -0.260127 -0.014369 -0.031269
							CHANNELS 3 Zrotation Yrotation Xrotation
							JOINT rwrist
							{
								OFFSET -0.269108 0.006794 -0.006027
								CHANNELS 3 Zrotation Yrotation Xrotation
								End Site
								{
									OFFSET 0.000000 0.000000 0.000000
								}
							}
						}
					}
				}
			}
		}
	}
}
MOTION
Frames: 7
Frame Time: 0.033333
0.472826 0.172500 0.986798 86.242026 3.286264 96.355132 5.659942 4.672688 -3.659407 3.455424 -1.776790 -6.721379 -0.740669 11.429240 -3.919776 0.000000 -0.000000 0.000000 -2.787049 -2.281967 -7.994909 -1.260792 3.632781 0.447794 6.233616 -5.723006 -2.603428 0.000000 -0.000000 0.000000 -0.559658 0.596923 -0.398460 3.565687 -3.266244 -2.102357 0.221040 1.470474 -8.150721 -0.053598 -7.545060 2.456220 3.533757 -6.994346 1.597720 -21.204926 3.564621 -5.246500 -61.532210 -4.064282 28.795755 2.371154 -17.022453 21.218107 -11.682622 -5.904046 17.959693 23.612422 1.612818 -1.878875 53.583821 6.772374 20.304871 -0.773258 10.825034 11.053781 8.398338 2.607808 9.473149 
0.473124 0.172364 0.986667 86.200389 3.294509 96.277116 5.651311 4.639391 -3.480618 3.470129 -1.803120 -6.949721 -0.580423 11.640827 -3.589963 0.000000 -0.000000 0.000000 -2.753223 -2.241815 -7.898130 -1.273733 3.658297 0.384902 6.260900 -5.827826 -2.669762 0.000000 -0.000000 0.000000 -0.543867 0.613668 -0.174536 3.369542 -3.189511 -2.268750 0.251958 1.682464 -8.294260 -0.122934 -7.885412 2.649918 3.767750 -6.803415 1.874279 -21.258768 3.106305 -4.923694 -61.313630 -4.126800 28.598358 2.152749 -16.639311 20.632367 -10.795035 -6.983561 16.990587 23.359324 2.804010 -1.196402 53.871875 6.147410 20.689612 -1.023216 10.643521 9.597706 7.234239 3.462798 8.392956 
0.473670 0.171909 0.986512 86.239188 3.292385 96.278899 5.674240 4.642660 -3.436807 3.439378 -1.753669 -7.087982 -0.560980 11.626098 -3.198805 0.000000 -0.000000 0.000000 -2.710366 -2.254764 -7.812375 -1.294313 3.617344 0.236543 6.132325 -5.730259 -2.699473 0.000000 -0.000000 0.000000 -0.618125 0.620058 -0.285615 3.379983 -3.206627 -2.140987 0.263186 1.643354 -8.409950 -0.122271 -7.892114 2.848510 3.791914 -6.810196 1.935264 -21.442009 3.086263 -4.832113 -61.003093 -4.257180 28.396376 1.725269 -16.281793 20.185756 -9.985111 -8.059316 16.137780 23.435231 2.787805 -1.208711 53.768085 6.202641 20.743361 -0.815764 10.482814 9.568780 6.721021 3.822384 8.365338 
0.474300 0.171177 0.986051 86.365506 3.321799 96.531614 5.748433 4.576096 -3.716275 3.366344 -1.766639 -7.171090 -0.619257 11.694138 -2.836541 0.000000 -0.000000 0.000000 -2.529866 -2.116366 -7.879679 -1.396648 3.666157 -0.136695 5.786064 -5.791077 -2.855084 0.000000 -0.000000 0.000000 -0.695005 0.469783 -0.652083 3.339307 -3.224531 -1.977630 0.300408 1.751258 -8.557669 -0.120255 -8.033487 2.915600 3.991512 -6.790629 1.942755 -21.464513 2.879894 -4.616596 -60.901190 -4.347016 28.424597 1.511786 -15.710094 19.605844 -9.082058 -9.200608 15.055213 23.257739 3.441804 -0.899507 53.858981 6.165833 21.108778 -0.336576 9.861841 9.127116 6.095802 4.314316 7.280152 
0.474275 0.171091 0.985971 86.321977 3.349539 96.541487 5.774055 4.584660 -3.720958 3.380877 -1.797082 -7.188418 -0.626221 11.732708 -2.845892 0.000000 -0.000000 0.000000 -2.474068 -2.105424 -7.904007 -1.416058 3.717914 -0.161013 5.766382 -5.803450 -2.868672 0.000000 -0.000000 0.000000 -0.664748 0.477517 -0.598535 3.309109 -3.213916 -2.005313 0.314729 1.806317 -8.606300 -0.128173 -8.124456 2.868429 4.033798 -6.751844 1.884861 -21.470761 2.807288 -4.590737 -60.903606 -4.291598 28.470950 1.584279 -15.631767 19.505587 -9.023419 -9.264288 14.970991 23.174902 3.697763 -0.803779 53.972820 6.021943 21.211903 -0.379882 9.802492 8.797271 5.894914 4.414804 7.031260 
0.474156 0.170818 0.985930 86.275185 3.400237 96.533405 5.842078 4.629715 -3.738544 3.371588 -1.783921 -7.177858 -0.611303 11.721186 -2.843643 0.000000 -0.000000 0.000000 -2.393747 -2.155955 -7.922700 -1.408727 3.793198 -0.171142 5.743493 -5.759632 -2.870456 0.000000 -0.000000 0.000000 -0.651928 0.538233 -0.534563 3.351024 -3.232014 -1.969071 0.328209 1.792433 -8.636575 -0.045199 -8.084572 2.661853 3.981115 -6.834870 1.718389 -21.553519 2.878283 -4.718693 -60.874056 -4.209914 28.503803 1.720241 -15.795238 19.616217 -9.463555 -8.711288 15.359448 23.248216 3.551971 -0.977001 53.922391 6.024808 21.159471 -0.423522 9.878181 8.910239 6.274590 4.163629 7.291367 
0.473914 0.170508 0.985819 86.283504 3.390329 96.577532 5.857259 4.619690 -3.832787 3.329977 -1.707309 -7.122103 -0.591844 11.638714 -2.857524 0.000000 -0.000000 0.000000 -2.402981 -2.171060 -7.990595 -1.389177 3.761602 -0.158311 5.719760 -5.682784 -2.834822 0.000000 -0.000000 0.000000 -0.694933 0.553902 -0.508374 3.423461 -3.231347 -2.087227 0.334609 1.665623 -8.461734 0.050589 -7.901892 2.327288 3.856253 -6.936079 1.637621 -21.537159 3.071940 -4.868403 -60.949758 -4.206999 28.445227 1.760353 -15.739021 19.833607 -9.847858 -8.581202 15.608839 23.436308 2.940845 -1.334997 53.768698 6.333596 20.932143 -0.372338 9.928212 9.758419 6.825258 3.943241 7.904676 
